<svg width="24" height="24" viewBox="0 0 24 24" fill="none" xmlns="http://www.w3.org/2000/svg">
<path d="M19.1118 9.75C18.9843 9.75 18.435 9.75375 18.2367 9.76453L15.5287 9.83578L9.28403 2.25H6.33981L9.83622 9.96609L5.27481 10.0336L3.19919 7.5H0.756533L1.72263 11.9147C1.72966 11.94 1.7381 11.9648 1.74747 11.9892C1.74816 11.9915 1.74816 11.994 1.74747 11.9962C1.73786 12.0205 1.72957 12.0452 1.72263 12.0703L0.743408 16.5H3.1706L5.30106 13.9219L9.83716 14.0236L6.33935 21.75H9.29247L15.5268 14.168L18.2348 14.2402C18.4359 14.2509 18.9848 14.2547 19.1095 14.2547C20.2509 14.2547 21.1847 14.0981 21.885 13.7888C23.0728 13.2656 23.25 12.4434 23.25 12C23.25 10.5909 21.7031 9.75 19.1118 9.75Z" fill="#CBBAD3"/>
</svg>
