<svg width="24" height="24" viewBox="0 0 24 24" fill="none" xmlns="http://www.w3.org/2000/svg">
<g clip-path="url(#clip0_106_14)">
<path d="M12.2466 18.4733C12.2466 18.4733 12.2433 18.4833 12.24 18.4867C12.16 18.6267 12.07 18.7567 11.9766 18.88C11.9533 18.9133 11.9266 18.9433 11.9 18.9767C11.8233 19.0733 11.7433 19.1633 11.66 19.25C11.6333 19.2767 11.6066 19.3067 11.5766 19.3333C11.47 19.4367 11.36 19.5367 11.2433 19.6267C11.2366 19.63 11.23 19.6367 11.2266 19.64C11.1 19.7367 10.97 19.8233 10.8333 19.9033C10.8233 19.91 10.8133 19.92 10.8 19.9267C10.7766 19.94 10.7533 19.95 10.73 19.96C10.6233 20.02 10.5133 20.0733 10.4033 20.12C10.3566 20.14 10.31 20.16 10.2633 20.18C10.1266 20.2333 9.98664 20.28 9.84664 20.32C9.80331 20.3333 9.75664 20.34 9.71331 20.35C9.60664 20.3733 9.49998 20.3967 9.38998 20.41C9.33664 20.4167 9.28331 20.4233 9.22998 20.43C9.10998 20.4433 8.98998 20.45 8.86998 20.45C8.83998 20.45 8.81331 20.45 8.78331 20.45C8.62331 20.45 8.45998 20.4367 8.29998 20.4133H8.29664C8.13998 20.39 7.98664 20.3567 7.83331 20.3167C7.81331 20.31 7.79331 20.3067 7.77331 20.3C7.63331 20.26 7.49664 20.2133 7.35998 20.1567C7.34331 20.15 7.32998 20.1433 7.31331 20.1367C7.16664 20.0733 7.01998 20.0067 6.87664 19.9233C6.73664 19.8433 6.60998 19.7533 6.48331 19.66C6.45331 19.6367 6.42664 19.6133 6.39664 19.59C6.30331 19.5133 6.20998 19.4367 6.12331 19.3533C6.09331 19.3233 6.05998 19.2933 6.02998 19.2633C5.93664 19.1667 5.84664 19.0667 5.76331 18.96C5.74998 18.9433 5.73331 18.9267 5.71998 18.91C5.62331 18.7867 5.53998 18.6567 5.45998 18.52C5.45331 18.5067 5.44331 18.4967 5.43331 18.4833C5.40998 18.44 5.38998 18.3967 5.36664 18.3533C5.33998 18.3 5.30998 18.2467 5.28331 18.1933C5.24998 18.1233 5.21998 18.0533 5.19331 17.98C5.17664 17.9367 5.15664 17.89 5.13998 17.8467C5.11331 17.7667 5.08664 17.69 5.06331 17.61C5.04998 17.5667 5.03998 17.5267 5.02998 17.4833C5.00998 17.4033 4.99331 17.3233 4.97664 17.2467C4.96664 17.2 4.95998 17.15 4.95331 17.1033C4.94331 17.0333 4.93331 16.96 4.92664 16.89C4.91998 16.83 4.91664 16.7667 4.91331 16.7067C4.91331 16.65 4.90998 16.5933 4.90998 16.5367C4.90998 16.46 4.90998 16.3833 4.91664 16.3033C4.91664 16.2633 4.92331 16.2233 4.92664 16.1833C4.93331 16.0933 4.94664 16 4.95998 15.91C4.96331 15.8833 4.96998 15.8567 4.97331 15.8267C4.98998 15.7267 5.01331 15.63 5.03664 15.53C5.04331 15.5067 5.04998 15.4867 5.05331 15.4633C5.07998 15.3633 5.10998 15.2667 5.14664 15.17C5.15664 15.1433 5.16664 15.12 5.17664 15.0933C5.21331 15.0033 5.24998 14.9133 5.28998 14.8267C5.30664 14.79 5.32664 14.7567 5.34331 14.7233C5.37331 14.6667 5.39664 14.61 5.42998 14.5533C5.44331 14.5333 5.45664 14.5133 5.46998 14.4933C5.49331 14.4533 5.52331 14.4133 5.54664 14.3733C5.58998 14.3067 5.63664 14.2367 5.68331 14.1733C5.71331 14.1333 5.74331 14.0967 5.77331 14.06C5.80331 14.0233 5.82998 13.9867 5.85998 13.95L-0.00335693 13.9833V23.9933H16.1366L12.5966 17.8633L12.2466 18.4667V18.4733Z" fill="#0E0305"/>
<path d="M-2.36002e-05 0V12.6433L8.83331 12.5933C8.83331 12.5933 8.86331 12.5933 8.87998 12.5933C9.03664 12.5933 9.19331 12.6033 9.34998 12.6233H9.35664C9.50998 12.6433 9.65998 12.6767 9.81331 12.7167C9.83998 12.7233 9.86664 12.7333 9.89664 12.74C10.0233 12.7767 10.1466 12.8167 10.27 12.8667C10.3033 12.88 10.3366 12.8933 10.37 12.9067C10.5166 12.97 10.66 13.0367 10.8 13.1167C11.1 13.29 11.3666 13.5 11.6 13.7367L11.6066 13.7433C11.85 13.9867 12.0566 14.2567 12.2266 14.5467C12.2266 14.55 12.2333 14.5567 12.2366 14.56L12.5966 15.1833L15.4066 10.3167C16.12 9.08333 15.6933 7.49667 14.46 6.78667C13.2266 6.07333 11.64 6.5 10.93 7.73333C10.6833 8.16 10.5633 8.65 10.5866 9.14333L9.24331 9.20333C9.20998 8.45333 9.38998 7.71333 9.76664 7.06333C10.85 5.18667 13.26 4.54 15.1333 5.62333C17.01 6.70667 17.6566 9.11333 16.57 10.99L13.3733 16.5267L17.69 24.0033H24V0H-2.36002e-05Z" fill="#0E0305"/>
<path d="M6.28331 16.9133C6.28664 16.9433 6.29331 16.97 6.29664 17C6.30664 17.0567 6.31998 17.11 6.33331 17.1633C6.33998 17.19 6.34664 17.2133 6.35331 17.24C6.36998 17.2933 6.38664 17.3467 6.40331 17.4C6.41331 17.4267 6.42331 17.4567 6.43664 17.4833C6.45664 17.53 6.47664 17.58 6.49664 17.6267C6.51331 17.6633 6.53331 17.6967 6.54998 17.73C6.56664 17.7633 6.58664 17.8 6.60664 17.8333C6.68664 17.9667 6.77331 18.09 6.87331 18.2067C6.88331 18.22 6.89331 18.2333 6.90664 18.2433C7.00664 18.3533 7.11331 18.4567 7.22998 18.5467C7.24664 18.56 7.26331 18.5733 7.27998 18.5867C7.39664 18.6733 7.52331 18.7533 7.65331 18.82C7.67331 18.83 7.68998 18.84 7.70998 18.8467C7.84664 18.9133 7.99331 18.9667 8.14331 19.01C8.15664 19.0133 8.16998 19.0167 8.18331 19.02C8.32998 19.06 8.47998 19.0833 8.62998 19.0933C8.65331 19.0933 8.67664 19.0967 8.69998 19.1C8.83998 19.1067 8.97998 19.1 9.11664 19.0867C9.14998 19.0833 9.17998 19.08 9.21331 19.0767C9.34664 19.0567 9.47998 19.0267 9.60998 18.9833C9.63998 18.9733 9.66664 18.9667 9.69664 18.9567C9.83331 18.9067 9.96664 18.8467 10.0933 18.7767C10.1133 18.7667 10.1333 18.7567 10.1533 18.7433C10.24 18.6933 10.3233 18.6367 10.4033 18.5767C10.4133 18.57 10.4233 18.56 10.4333 18.55C10.5033 18.4967 10.57 18.4367 10.6333 18.3767C10.6566 18.3533 10.68 18.33 10.7 18.3067C10.75 18.2567 10.7933 18.2033 10.84 18.15C10.8633 18.1233 10.8866 18.0933 10.9066 18.0667C10.9566 18 11 17.9333 11.0433 17.8633C11.0533 17.8467 11.0633 17.8333 11.0733 17.8167L11.0833 17.8C11.55 16.98 11.5166 16.0067 11.0766 15.2367V15.23C10.73 14.6367 10.1666 14.21 9.52331 14.03C9.51331 14.03 9.50331 14.0233 9.49331 14.0233C9.43998 14.01 9.38331 14 9.32664 13.99C9.16664 13.96 9.00664 13.94 8.84664 13.94C8.83331 13.94 8.81998 13.94 8.80664 13.94C8.71664 13.94 8.62664 13.9467 8.53998 13.9567C8.51664 13.9567 8.49331 13.96 8.47331 13.9633C8.37664 13.9767 8.27664 13.9967 8.18331 14.02C8.17998 14.02 8.17664 14.02 8.16998 14.02C8.07331 14.0467 7.97998 14.08 7.88664 14.1167C7.85664 14.1267 7.82998 14.14 7.79998 14.1533C7.72998 14.1833 7.65998 14.2167 7.59331 14.2567C7.56664 14.27 7.54331 14.2833 7.51664 14.2967C7.46998 14.3233 7.42664 14.3533 7.38331 14.3833C7.35664 14.4 7.32998 14.42 7.30331 14.4367C7.25664 14.47 7.21331 14.5067 7.16998 14.5433C7.14998 14.56 7.12664 14.58 7.10664 14.5967C7.06331 14.6367 7.02331 14.6767 6.97998 14.72C6.96331 14.74 6.94331 14.7567 6.92664 14.7767C6.88664 14.82 6.84998 14.8667 6.81331 14.9133C6.79664 14.9333 6.77998 14.9533 6.76664 14.9733C6.72998 15.02 6.69998 15.07 6.66664 15.12C6.65331 15.14 6.63998 15.16 6.62664 15.1833C6.59998 15.23 6.57664 15.2767 6.54998 15.3233C6.53331 15.3533 6.51664 15.3833 6.50331 15.4133C6.47998 15.4633 6.45664 15.5167 6.43664 15.57C6.42664 15.5933 6.41664 15.6167 6.40998 15.64C6.38998 15.6967 6.36998 15.7567 6.35331 15.8167C6.34664 15.8367 6.34331 15.8567 6.33664 15.8767C6.31998 15.9367 6.30998 15.9967 6.29664 16.0567C6.29331 16.08 6.28664 16.1033 6.28331 16.1267C6.27331 16.1833 6.26998 16.2367 6.26331 16.2933C6.26331 16.3233 6.25664 16.3533 6.25664 16.3867C6.25664 16.4333 6.25664 16.48 6.25664 16.5267C6.25664 16.5667 6.25664 16.61 6.25664 16.65C6.25664 16.6867 6.25998 16.7233 6.26331 16.76C6.26664 16.81 6.27331 16.86 6.27998 16.91L6.28331 16.9133Z" fill="#0E0305"/>
</g>
<defs>
<clipPath id="clip0_106_14">
<rect width="24" height="24" fill="white"/>
</clipPath>
</defs>
</svg>
